# xmcd CD database file
#
# Track frame offsets:
#	150
#	16842
#	33325
#	46877
#	69072
#	95221
#	114440
#	125303
#	144875
#	162308
#	182367
#	200866
#	271572
#
# Disc length: 3754 seconds
#
# Revision: 0
# Processed by: cddbd v1.5.2PL0 Copyright (c) Steve Scherf et al.
# Submitted via: CDex 1.51
#
DISCID=a20ea80d
DTITLE=just jack - overtones
DYEAR=2007
DGENRE=New Age
TTITLE0=writers block
TTITLE1=glory days
TTITLE2=dico friends
TTITLE3=starz in their eyes
TTITLE4=lost
TTITLE5=i talk too much
TTITLE6=hold on
TTITLE7=symphony of sirens
TTITLE8=life stories
TTITLE9=no time
TTITLE10=mourning morning
TTITLE11=spectacular failures
TTITLE12=data
EXTD=YEAR: 2007
EXTT0=
EXTT1=
EXTT2=
EXTT3=
EXTT4=
EXTT5=
EXTT6=
EXTT7=
EXTT8=
EXTT9=
EXTT10=
EXTT11=
EXTT12=
PLAYORDER=
